<svg width="37" height="37" viewBox="0 0 37 37" fill="none" xmlns="http://www.w3.org/2000/svg">
<g clip-path="url(#clip0)">
<path d="M31.5801 0H5.41992C2.42824 0 0 2.42824 0 5.41992V31.5801C0 34.5718 2.42824 37 5.41992 37H31.5801C34.5718 37 37 34.5718 37 31.5801V5.41992C37 2.42824 34.5718 0 31.5801 0Z" fill="#FF5B5B"/>
<path d="M37 5.41992V31.5801C37 34.5718 34.5718 37 31.5801 37H18.5V0H31.5801C34.5718 0 37 2.42824 37 5.41992Z" fill="#FF3997"/>
<path d="M29.4121 10.8398C27.619 10.8398 26.1602 9.38098 26.1602 7.58789C26.1602 5.7948 27.619 4.33594 29.4121 4.33594C31.2052 4.33594 32.6641 5.7948 32.6641 7.58789C32.6641 9.38098 31.2052 10.8398 29.4121 10.8398ZM29.4121 6.50391C28.8139 6.50391 28.3281 6.98972 28.3281 7.58789C28.3281 8.18606 28.8139 8.67188 29.4121 8.67188C30.0103 8.67188 30.4961 8.18606 30.4961 7.58789C30.4961 6.98972 30.0103 6.50391 29.4121 6.50391Z" fill="#E2E2E7"/>
<path d="M18.498 8.67188C13.1216 8.67188 8.74219 13.051 8.74219 18.4277C8.74219 23.8042 13.1216 28.1836 18.498 28.1836C23.8745 28.1836 28.3262 23.8042 28.3262 18.4277C28.3262 13.051 23.8745 8.67188 18.498 8.67188ZM18.498 26.0156C14.314 26.0156 10.9102 22.6118 10.9102 18.4277C10.9102 14.2437 14.314 10.8398 18.498 10.8398C22.6821 10.8398 26.1582 14.2437 26.1582 18.4277C26.1582 22.6118 22.6821 26.0156 18.498 26.0156Z" fill="#ECECF1"/>
<path d="M28.3281 18.4277C28.3281 23.8042 23.8764 28.1836 18.5 28.1836V26.0156C22.6841 26.0156 26.1602 22.6118 26.1602 18.4277C26.1602 14.2437 22.6841 10.8398 18.5 10.8398V8.67188C23.8764 8.67188 28.3281 13.051 28.3281 18.4277Z" fill="#E2E2E7"/>
</g>
<defs>
<clipPath id="clip0">
<rect width="37" height="37" fill="white"/>
</clipPath>
</defs>
</svg>
