<svg width="37" height="37" viewBox="0 0 37 37" fill="none" xmlns="http://www.w3.org/2000/svg">
<g clip-path="url(#clip0)">
<path d="M18.5 0C8.33228 0 0 8.33228 0 18.5C0 21.8604 0.910378 25.1123 2.6233 27.9741L0 37L9.02586 34.3767C11.8877 36.0893 15.1396 37 18.5 37C28.6677 37 37 28.6677 37 18.5C37 8.33228 28.6677 0 18.5 0Z" fill="#00DD7B"/>
<path d="M37 18.5C37 28.6677 28.6677 37 18.5 37V0C28.6677 0 37 8.33228 37 18.5Z" fill="#00CC71"/>
<path d="M30.1509 26.3268L29.2837 27.1723C28.0696 28.3864 25.2512 28.2995 23.4519 27.9528C21.8477 27.6494 20.1277 26.9338 18.5017 25.9364C14.0791 23.2482 10.0684 18.4787 9.09278 14.1862C8.42065 11.2809 8.78932 8.7663 9.74317 7.79072L10.6104 6.92353C11.0874 6.4682 11.8459 6.4682 12.323 6.92353L15.77 10.3705C16.0085 10.6091 16.1387 10.9125 16.1387 11.2377C16.1387 11.5629 16.0085 11.8664 15.77 12.1049L14.9028 12.9504C13.9707 13.9042 13.9707 15.4435 14.9028 16.3974L18.5017 19.9313L20.6045 22.0126C21.5586 22.9665 23.1702 22.9665 24.124 22.0126L24.9695 21.1452C25.4248 20.7116 26.2485 20.7116 26.7039 21.1452L30.1509 24.5925C30.6062 25.0693 30.6279 25.828 30.1509 26.3268Z" fill="#ECECF1"/>
<path d="M30.1492 26.3271L29.282 27.1726C28.0679 28.3867 25.2495 28.2998 23.4502 27.9531C21.846 27.6497 20.126 26.9341 18.5 25.9367V19.9316L20.6028 22.0129C21.5569 22.9668 23.1685 22.9668 24.1223 22.0129L24.9678 21.1455C25.4231 20.7119 26.2468 20.7119 26.7021 21.1455L30.1492 24.5928C30.6045 25.0696 30.6262 25.8283 30.1492 26.3271Z" fill="#E2E2E7"/>
</g>
<defs>
<clipPath id="clip0">
<rect width="37" height="37" fill="white"/>
</clipPath>
</defs>
</svg>
