<svg width="33" height="33" viewBox="0 0 33 33" fill="none" xmlns="http://www.w3.org/2000/svg">
<path d="M28.166 3.93164H4.83398C2.16573 3.93164 0 6.09737 0 8.76562V24.2344C0 26.9026 2.16573 29.0684 4.83398 29.0684H28.166C30.8343 29.0684 33 26.9026 33 24.2344V8.76562C33 6.09737 30.8343 3.93164 28.166 3.93164Z" fill="#FF3939"/>
<path d="M33 8.76562V24.2344C33 26.9026 30.8343 29.0684 28.166 29.0684H16.5V3.93164H28.166C30.8343 3.93164 33 6.09737 33 8.76562Z" fill="#C90232"/>
<path d="M16.498 12.7111L11.6641 10.0234V23.1719L16.498 20.3876L23.3044 16.4816L16.498 12.7111Z" fill="#ECECF1"/>
<path d="M23.3063 16.4814L16.5 20.3874V12.7109L23.3063 16.4814Z" fill="#E2E2E7"/>
</svg>
