<svg width="286" height="286" viewBox="0 0 286 286" fill="none" xmlns="http://www.w3.org/2000/svg">
<path d="M22.6445 264.699V18.2719C22.6445 9.83094 31.731 4.56775 39.0796 8.73858L257.601 133.516C265.099 137.786 265.049 148.61 257.552 152.831L40.5692 275.175C32.5254 279.694 22.6445 273.884 22.6445 264.699Z" fill="#66BE69"/>
<path d="M257.601 133.517L198.415 99.7031L26.2188 273.24C29.8434 276.765 35.5535 277.957 40.5684 275.176L257.551 152.832C265.049 148.561 265.098 137.787 257.601 133.517Z" fill="#FCD306"/>
<path d="M25.9713 10.4277C23.9355 12.3642 22.6445 15.0951 22.6445 18.3225V264.749C22.6445 273.935 32.5254 279.695 40.5195 275.176L197.571 186.645L25.9713 10.4277Z" fill="#3BC5F3"/>
<path d="M155.269 143.148L26.668 273.686C30.2926 276.913 35.7544 277.906 40.5707 275.175L198.616 186.098L155.269 143.148Z" fill="#EF364D"/>
</svg>
