<svg width="37" height="37" viewBox="0 0 37 37" fill="none" xmlns="http://www.w3.org/2000/svg">
<g clip-path="url(#clip0)">
<path d="M37 5.41992V31.5801C37 34.5718 34.5718 37 31.5801 37H22.8359L20.668 34.832H18.5L16.332 37H5.41992C2.42824 37 0 34.5718 0 31.5801V5.41992C0 2.42824 2.42824 0 5.41992 0H31.5801C34.5718 0 37 2.42824 37 5.41992Z" fill="#7984EB"/>
<path d="M37.002 5.41992V31.5801C37.002 34.5718 34.5737 37 31.582 37H22.8379L20.6699 34.832H19.5859V0H31.582C34.5737 0 37.002 2.42824 37.002 5.41992Z" fill="#4661D1"/>
<path d="M22.8359 13.0078V17.3438H29.3398L28.2559 23.8477H22.8359V37H16.332V23.8477H11.9961V17.3438H16.332V13.0078C16.332 10.6013 17.6545 8.49827 19.584 7.37109C20.5378 6.8291 21.6653 6.50391 22.8359 6.50391H29.3398V13.0078H22.8359Z" fill="#ECECF1"/>
<path d="M22.8379 13.0078V17.3438H29.3418L28.2578 23.8477H22.8379V37H19.5859V7.37109C20.5398 6.8291 21.6672 6.50391 22.8379 6.50391H29.3418V13.0078H22.8379Z" fill="#E2E2E7"/>
</g>
<defs>
<clipPath id="clip0">
<rect width="37" height="37" fill="white"/>
</clipPath>
</defs>
</svg>
